<svg xmlns="http://www.w3.org/2000/svg" viewBox="0 0 24 24" fill="none" stroke="currentColor" strokeWidth="2" strokeLinecap="round" strokeLinejoin="round" className="icon">
  <path d="M12 2a10 10 0 00-3.16 19.49c.5.09.68-.22.68-.48v-1.7c-2.78.6-3.37-1.34-3.37-1.34-.45-1.14-1.1-1.45-1.1-1.45-.9-.62.07-.61.07-.61 1 .07 1.53 1.03 1.53 1.03.9 1.55 2.36 1.1 2.93.84.1-.64.35-1.1.64-1.35-2.24-.26-4.6-1.12-4.6-4.98 0-1.1.39-2 1.03-2.7-.1-.26-.45-1.28.1-2.66 0 0 .84-.27 2.75 1.03a9.57 9.57 0 012.5-.34c.84.01 1.69.11 2.5.34 1.91-1.3 2.75-1.03 2.75-1.03.55 1.38.2 2.4.1 2.66.64.7 1.03 1.6 1.03 2.7 0 3.87-2.37 4.72-4.61 4.98.36.31.68.92.68 1.86v2.77c0 .26.18.58.69.48A10 10 0 0012 2z"/>
</svg>
