<svg xmlns="http://www.w3.org/2000/svg" viewBox="0 0 24 24" fill="none" stroke="currentColor" strokeWidth="2" strokeLinecap="round" strokeLinejoin="round" className="icon">
  <path d="M4 4v16h16V4H4zm5.74 14H7.16V9.43h2.58V18zM7.16 7.5a1.76 1.76 0 01-1.75-1.75A1.76 1.76 0 017.16 4a1.76 1.76 0 011.75 1.75A1.76 1.76 0 017.16 7.5zM18 14.32c0-1.38-.63-2.06-1.22-2.45v-.04c.87-.48 1.46-1.23 1.46-2.6 0-1.92-1.32-3.14-3.36-3.14s-3 1.42-3.5 2.28h-.04V9.44H8.84c.06.69 0 7.56 0 7.56h2.58v-4.24c0-.36.03-.72.16-.98.35-.72 1-1.47 2.17-1.47 1.53 0 2.14 1.13 2.14 2.78v5.9h2.58V14.32z"/>
</svg>
